<?xml version="1.0" encoding="UTF-8"?>
<svg id="Capa_1" data-name="Capa 1" xmlns="http://www.w3.org/2000/svg" viewBox="0 0 72 72">
  <defs>
    <style>
      .cls-1 {
        fill: #010101;
      }
    </style>
  </defs>
  <path class="cls-1" d="M64.61,7.2H7.38C3.3,7.2,0,10.5,0,14.58v42.83c0,4.08,3.3,7.39,7.38,7.39h57.23c4.08,0,7.39-3.31,7.39-7.39V14.58c0-4.08-3.31-7.38-7.39-7.38ZM68,57.41c0,1.87-1.52,3.39-3.39,3.39H7.38c-1.86,0-3.38-1.52-3.38-3.39V23.64h64v33.77ZM68,19.64H4v-5.06c0-1.86,1.52-3.38,3.38-3.38h57.23c1.87,0,3.39,1.52,3.39,3.38v5.06Z"/>
  <path class="cls-1" d="M63.12,39.16v6.72c0,1.11-.9,2-2,2s-2-.89-2-2v-6.72c0-1.11.89-2,2-2s2,.89,2,2Z"/>
  <path class="cls-1" d="M55.94,35.18v14.68c0,1.1-.89,2-2,2s-2-.9-2-2v-14.68c0-1.1.9-2,2-2s2,.9,2,2Z"/>
  <path class="cls-1" d="M48.76,31.48v22.08c0,1.1-.89,2-2,2s-2-.9-2-2v-22.08c0-1.1.9-2,2-2s2,.9,2,2Z"/>
  <path class="cls-1" d="M41.59,35.18v14.68c0,1.1-.9,2-2,2s-2-.9-2-2v-14.68c0-1.1.89-2,2-2s2,.9,2,2Z"/>
  <path class="cls-1" d="M34.41,38.28v8.48c0,1.11-.9,2-2,2s-2-.89-2-2v-8.48c0-1.11.89-2,2-2s2,.89,2,2Z"/>
  <path class="cls-1" d="M27.23,35.18v14.68c0,1.1-.89,2-2,2s-2-.9-2-2v-14.68c0-1.1.9-2,2-2s2,.9,2,2Z"/>
  <path class="cls-1" d="M20.05,31.1v22.84c0,1.11-.89,2-2,2s-2-.89-2-2v-22.84c0-1.1.9-2,2-2s2,.9,2,2Z"/>
  <path class="cls-1" d="M12.88,35.18v14.68c0,1.1-.9,2-2,2s-2-.9-2-2v-14.68c0-1.1.89-2,2-2s2,.9,2,2Z"/>
</svg>