<?xml version="1.0" encoding="UTF-8"?>
<svg id="Capa_1" data-name="Capa 1" xmlns="http://www.w3.org/2000/svg" viewBox="0 0 72 72">
  <defs>
    <style>
      .cls-1 {
        fill: #010101;
      }
    </style>
  </defs>
  <path class="cls-1" d="M67.14,14.85l2.79-2.79c1.38-1.38,2.07-3.19,2.07-5s-.69-3.61-2.07-4.99-3.19-2.07-5-2.07-3.61.69-4.99,2.07l-12.33,12.33H7.39c-4.08,0-7.39,3.3-7.39,7.38v42.83c0,4.08,3.31,7.39,7.39,7.39h57.23c4.08,0,7.38-3.31,7.38-7.39V21.78c0-3.19-2.02-5.91-4.86-6.93ZM49.26,18.4l13.5-13.5c.58-.58,1.36-.9,2.17-.9s1.6.32,2.17.9c1.2,1.19,1.2,3.14,0,4.34l-5.16,5.16-4,4-5.1,5.1-9.2,9.2-4.34-4.33.86-.87,4-4,5.1-5.1ZM32.46,29.54c-2.27,2.27-2.67,5.7-1.21,8.38l-1.28,1.29c-.78.78-.78,2.04,0,2.82.39.39.9.59,1.41.59s1.03-.2,1.42-.59l1.28-1.28c1.05.57,2.21.86,3.38.86,1.81,0,3.62-.69,5-2.07l12.04-12.04h4.62v32.03H12.67V27.5h21.83l-2.04,2.04ZM35.29,32.37l1.19-1.18,4.33,4.34-1.18,1.18c-.58.58-1.35.9-2.17.9s-1.59-.32-2.17-.9c-.58-.58-.9-1.35-.9-2.17s.32-1.59.9-2.17ZM68,64.61c0,1.87-1.52,3.39-3.38,3.39H7.39c-1.87,0-3.39-1.52-3.39-3.39V21.78c0-1.86,1.52-3.38,3.39-3.38h36.21l-5.1,5.1H11.19c-1.39,0-2.52,1.13-2.52,2.52v34.98c0,1.4,1.13,2.53,2.52,2.53h49.4c1.4,0,2.53-1.13,2.53-2.53V26.02c0-1.39-1.13-2.52-2.53-2.52h-2.1l5.1-5.1h1.03c1.86,0,3.38,1.52,3.38,3.38v42.83Z"/>
</svg>