<?xml version="1.0" encoding="UTF-8"?>
<svg id="Capa_1" data-name="Capa 1" xmlns="http://www.w3.org/2000/svg" viewBox="0 0 72 72">
  <defs>
    <style>
      .cls-1 {
        fill: #fff;
      }

      .cls-2 {
        fill: #009FE3;
      }

      .cls-3 {
        fill: #010101;
      }
    </style>
  </defs>
  <g>
    <path class="cls-3" d="M16.1,66.26s0,.01-.02.02h.05s-.02-.01-.03-.02Z"/>
    <rect class="cls-2" x="45.41" y="50.41" width="13.6" height="3.22"/>
  </g>
  <g>
    <path class="cls-1" d="M16.1,66.26s0,.01-.02.02h.05s-.02-.01-.03-.02Z"/>
    <path class="cls-3" d="M16.1,66.26s0,.01-.02.02h.05s-.02-.01-.03-.02Z"/>
    <path class="cls-1" d="M20.29,8.57v55.71h46.37V8.57H20.29ZM23.85,27.73v-13.62c0-.59.48-1.07,1.07-1.07h37.02c.59,0,1.07.48,1.07,1.07v13.62c0,.59-.48,1.07-1.07,1.07H24.92c-.59,0-1.07-.48-1.07-1.07ZM63.02,56.56c0,.59-.48,1.07-1.07,1.07h-19.46s-.08,0-.12-.01c-.53-.06-.95-.51-.95-1.06v-9.08c0-.55.42-1,.95-1.06.04,0,.08,0,.12,0h19.46c.59,0,1.07.48,1.07,1.07v9.08ZM63.05,43.21H24.26v-4h38.8v4ZM63.05,35.93H24.26v-4h38.8v4Z"/>
  </g>
  <rect class="cls-2" x="27.85" y="17.04" width="31.16" height="7.76"/>
  <rect class="cls-3" x="24.26" y="46.48" width="14.65" height="4"/>
  <rect class="cls-3" x="24.26" y="53.76" width="14.65" height="4"/>
  <g>
    <path class="cls-1" d="M16.1,66.26s0,.01-.02.02h.05s-.02-.01-.03-.02Z"/>
    <g>
      <path class="cls-3" d="M8.65,71.71c-1.07-.15-2.05-.41-2.94-.74.93.37,1.99.64,3.12.79-.06-.02-.12-.03-.18-.05ZM16.1,66.26s0,.01-.02.02h.05s-.02-.01-.03-.02Z"/>
      <path class="cls-3" d="M69.12,4.57H20.03C19.03,2.02,15.28.12,10.82.12,5.58.12,1.34,2.72,1.34,5.93v60.14c0,.43.08.86.23,1.26.02.07.04.14.07.2.41,1.21,1.55,2.27,3.15,3.03.17.09.35.17.53.24.13.07.26.12.39.17.89.33,1.87.59,2.94.74.06.02.12.03.18.05h.01c.78.2,1.6.31,2.45.31h33.8c.71,0,1.28-.57,1.28-1.28v-2.51h22.76c.85,0,1.54-.69,1.54-1.54V6.11c0-.85-.69-1.54-1.54-1.54ZM16.09,66.28s.02-.01.02-.02c.01.01.02.02.03.02h-.05ZM16.29,61.98c-.39-.15-.8-.27-1.23-.38-.63-.16-1.3-.28-2-.36-.63-.07-1.29-.11-1.96-.11-2.12,0-4.07.38-5.65,1.02-.04.02-.08.03-.12.06V6c.26-.57,2.19-1.88,5.48-1.88,1.35,0,2.47.22,3.34.52,1.25.43,1.98,1.02,2.14,1.36v55.98ZM66.66,64.28H20.29V8.57h46.37v55.71Z"/>
      <path class="cls-1" d="M16.29,6v55.98c-.39-.15-.8-.27-1.23-.38-.63-.16-1.3-.28-2-.36-.63-.07-1.29-.11-1.96-.11-2.12,0-4.07.38-5.65,1.02-.04.02-.08.03-.12.06V6c.26-.57,2.19-1.88,5.48-1.88,1.35,0,2.47.22,3.34.52,1.25.43,1.98,1.02,2.14,1.36Z"/>
      <path class="cls-3" d="M61.95,13.04H24.92c-.59,0-1.07.48-1.07,1.07v13.62c0,.59.48,1.07,1.07,1.07h37.02c.59,0,1.07-.48,1.07-1.07v-13.62c0-.59-.48-1.07-1.07-1.07ZM59.02,24.8h-31.16v-7.76h31.16v7.76Z"/>
      <rect class="cls-3" x="24.26" y="31.93" width="38.8" height="4"/>
      <rect class="cls-3" x="24.26" y="39.21" width="38.8" height="4"/>
      <path class="cls-3" d="M61.95,46.41h-19.46s-.08,0-.12,0c-.53.06-.95.51-.95,1.06v9.08c0,.55.42,1,.95,1.06.04.01.08.01.12.01h19.46c.59,0,1.07-.48,1.07-1.07v-9.08c0-.59-.48-1.07-1.07-1.07ZM59.02,53.63h-13.6v-3.22h13.6v3.22Z"/>
    </g>
  </g>
  <path class="cls-3" d="M16.14,66.28h-.05s.02-.01.02-.02c.01.01.02.02.03.02Z"/>
</svg>