<?xml version="1.0" encoding="UTF-8"?>
<svg id="Capa_1" data-name="Capa 1" xmlns="http://www.w3.org/2000/svg" viewBox="0 0 72 72">
  <defs>
    <style>
      .cls-1 {
        fill: #010101;
      }
    </style>
  </defs>
  <path class="cls-1" d="M69.41,12h-11.76v-4.62c0-4.08-3.31-7.38-7.39-7.38H7.45C3.36,0,.05,3.3.05,7.38v57.23c0,4.08,3.31,7.39,7.39,7.39h42.82c4.08,0,7.39-3.31,7.39-7.39v-4.84h11.76c1.4,0,2.53-1.13,2.53-2.52V14.52c0-1.39-1.13-2.52-2.53-2.52ZM53.66,12h-1.34c-1.39,0-2.52,1.13-2.52,2.52v1.07h-2.09v-4.41c0-1.39-1.12-2.52-2.52-2.52H11.9c-1.4,0-2.53,1.13-2.53,2.52v49.41c0,1.39,1.13,2.52,2.53,2.52h33.29c1.4,0,2.52-1.13,2.52-2.52v-4.41h2.09v1.07c0,1.39,1.13,2.52,2.52,2.52h1.34v4.84c0,1.87-1.52,3.39-3.39,3.39H7.45c-1.87,0-3.39-1.52-3.39-3.39V7.38c0-1.86,1.52-3.38,3.39-3.38h42.82c1.87,0,3.39,1.52,3.39,3.38v4.62ZM23.01,24.03c.64.64,1.53,1.04,2.51,1.04h1.63s.24,0,.24,0c1.96,0,3.55,1.59,3.55,3.55v.17c0,1.96-1.59,3.54-3.55,3.54h-8.52c-1.96,0-3.54,1.59-3.54,3.55,0,.98.4,1.86,1.04,2.5.64.64,1.52,1.04,2.5,1.04h8.73c1.95,0,3.54,1.59,3.54,3.55v.17c0,1.96-1.59,3.55-3.54,3.55h-2.08c-1.96,0-3.55,1.58-3.55,3.54,0,.98.4,1.87,1.04,2.51.64.64,1.53,1.03,2.51,1.03h9.88c.07,1.33,1.17,2.4,2.52,2.4h5.79v2.93H13.36V12.66h30.34v2.93h-5.79c-1.35,0-2.45,1.07-2.52,2.4h-9.88c-1.96,0-3.55,1.58-3.55,3.54,0,.98.4,1.86,1.04,2.5ZM39.4,52.18V19.59h10.4v32.59h-10.4ZM67.95,55.77h-14.15V16h14.15v39.77Z"/>
</svg>