<?xml version="1.0" encoding="UTF-8"?>
<svg id="Capa_1" data-name="Capa 1" xmlns="http://www.w3.org/2000/svg" viewBox="0 0 72 72">
  <defs>
    <style>
      .cls-1 {
        fill: #010101;
      }
    </style>
  </defs>
  <g>
    <path class="cls-1" d="M59.1,69.29c-.19-.91-.99-1.6-1.96-1.6.97,0,1.77-.69,1.96-1.6l2.77,1.6-2.77,1.6ZM6.3,67.69V16.57c0-.96-.68-1.77-1.59-1.96l1.59-2.76,1.59,2.76c-.91.19-1.59.99-1.59,1.96v49.12c0,1.1.9,2,2,2h-2Z"/>
    <path class="cls-1" d="M6.3,8.84c-.34,0-.67.17-.86.5l-3.31,5.73c-.38.66.1,1.49.87,1.49h1.3v51.12c0,1.11.9,2,2,2h50.84v1.32c0,.58.48.99,1,.99.16,0,.33-.04.49-.13l5.75-3.32c.66-.38.66-1.33,0-1.72l-5.75-3.32c-.16-.09-.33-.13-.49-.13-.52,0-1,.42-1,.99v1.32H8.3V16.57h1.31c.77,0,1.25-.83.86-1.49l-3.3-5.73c-.2-.33-.53-.5-.87-.5h0Z"/>
  </g>
  <path class="cls-1" d="M60.32,18.7l-20.95-12.1c-.61-.35-1.28-.52-1.96-.52s-1.35.17-1.95.52l-20.95,12.1c-1.21.7-1.96,1.99-1.96,3.39v24.19c0,1.4.75,2.69,1.96,3.39l20.95,12.09c.6.35,1.28.53,1.95.53s1.35-.18,1.96-.53l20.95-12.09c1.21-.7,1.96-1.99,1.96-3.39v-24.19c0-1.4-.75-2.69-1.96-3.39ZM58.28,46.23l-18.87,10.89v-21.78l18.87-10.89v21.78ZM35.41,57.12l-18.86-10.89v-21.78l18.86,10.89v21.78ZM37.41,31.87l-18.85-10.89,18.85-10.89,18.86,10.89-18.86,10.89Z"/>
</svg>