<?xml version="1.0" encoding="UTF-8"?>
<svg id="Capa_1" data-name="Capa 1" xmlns="http://www.w3.org/2000/svg" viewBox="0 0 72 72">
  <defs>
    <style>
      .cls-1 {
        fill: none;
      }

      .cls-2 {
        fill: #010101;
      }
    </style>
  </defs>
  <path class="cls-2" d="M27.24,30.03v.02h0v-.02Z"/>
  <path class="cls-1" d="M17.3,13.93h-.01M27.24,30.03v.02h0v-.02Z"/>
  <g>
    <path class="cls-2" d="M69.35,44.65l-7.12-13.34c-.35-.65-1.02-1.05-1.76-1.06h-.98l.07-.15,6.27-13.21c.94-1.98.1-4.34-1.88-5.28l-4.01-1.9c-.55-.26-1.12-.39-1.69-.39-1.49,0-2.91.84-3.59,2.27l-5.71,12.05c-2.3-2.54-5.62-4.13-9.31-4.13-1.92,0-3.75.43-5.38,1.21V7.63c0-2.19-1.78-3.96-3.96-3.96h-4.44c-2.19,0-3.97,1.77-3.97,3.96v7.38l-.87-2.44c-.58-1.62-2.1-2.64-3.73-2.64-.44,0-.89.08-1.33.23l-4.18,1.49c-2.06.74-3.14,3.01-2.4,5.07l4.76,13.37c-.68.09-1.28.53-1.56,1.17l-6.08,13.7c-.11.26-.17.53-.17.81v.12c0,1.1.9,2,2,2h4.4v16.48c0,2.19,1.78,3.96,3.96,3.96h42.24c2.19,0,3.96-1.77,3.96-3.96v-16.48h4.69c1.11,0,2-.9,2-2v-.3c0-.33-.08-.65-.23-.94ZM51.42,27.73l6.83-14.39,3.94,1.87-7.04,14.84h-4.83l1.1-2.32ZM32.25,27.73c.52-.88,1.2-1.67,2-2.31,1.47-1.19,3.34-1.91,5.38-1.91,3.13,0,5.88,1.69,7.37,4.21.43.72.75,1.5.95,2.33h-16.64c.2-.82.52-1.6.94-2.32ZM25.88,7.67h4.37v16.05c-1.55,1.73-2.62,3.9-3.02,6.31v.02s0,0,0,0c0,.02-.01.04-.01.07h-1.34V7.67ZM13.15,15.41l4.11-1.47,4.62,12.97,1.12,3.14v.05s-1.12,0-1.12,0h-3.5s-.01-.05-.01-.05l-5.22-14.64ZM58.88,64.33H16.73v-16.44h42.16v16.44ZM11.35,43.89l1.38-3.1,2-4.5.9-2.03.08-.18h1.98s2.13.02,2.13.02h4.07s.56,0,.56,0h1.44s.69.01.69.01h.67s2.03.01,2.03.01h.98s2,.01,2,.01h2s9.68.05,9.68.05h2.21s1.78.02,1.78.02h4.09s1.16.02,1.16.02h4.42s1.29.02,1.29.02h.37l1.63,3.05,2,3.74,1.52,2.85H11.35Z"/>
    <path class="cls-1" d="M59.55,30.1l-.07.15h.67c-.19-.07-.39-.12-.6-.15ZM16.73,34.02h-.01"/>
  </g>
</svg>