<?xml version="1.0" encoding="UTF-8"?>
<svg id="Capa_1" data-name="Capa 1" xmlns="http://www.w3.org/2000/svg" viewBox="0 0 72 72">
  <defs>
    <style>
      .cls-1 {
        fill: #13b69b;
      }

      .cls-2 {
        fill: #fff;
      }

      .cls-3 {
        fill: #010101;
      }
    </style>
  </defs>
  <g>
    <path class="cls-2" d="M68,14.59v5.05H4v-5.05c0-1.87,1.52-3.39,3.38-3.39h57.23c1.87,0,3.39,1.52,3.39,3.39Z"/>
    <path class="cls-1" d="M4,23.64v33.77c0,1.87,1.52,3.39,3.38,3.39h57.23c1.87,0,3.39-1.52,3.39-3.39V23.64H4ZM25.74,49.2c.78.78.78,2.05,0,2.83-.39.39-.9.59-1.42.59s-1.02-.2-1.41-.59l-8.54-8.54c-.19-.19-.34-.41-.44-.65-.19-.48-.2-1.02,0-1.5.1-.24.25-.46.44-.66l.12-.12,8.42-8.42c.78-.78,2.05-.78,2.83,0,.78.78.78,2.04,0,2.82l-7.12,7.12,7.12,7.12ZM59.38,42.71c-.1.24-.24.47-.44.66l-.12.12-8.42,8.42c-.39.4-.9.59-1.41.59s-1.03-.19-1.42-.59c-.78-.78-.78-2.04,0-2.82l7.12-7.12-7.12-7.12c-.78-.78-.78-2.05,0-2.83s2.05-.78,2.83,0l8.54,8.54c.58.58.73,1.43.44,2.15Z"/>
  </g>
  <path class="cls-3" d="M64.61,7.2H7.38C3.3,7.2,0,10.51,0,14.59v42.82c0,4.08,3.3,7.39,7.38,7.39h57.23c4.08,0,7.39-3.31,7.39-7.39V14.59c0-4.08-3.31-7.39-7.39-7.39ZM68,57.41c0,1.87-1.52,3.39-3.39,3.39H7.38c-1.86,0-3.38-1.52-3.38-3.39V23.64h64v33.77ZM68,19.64H4v-5.05c0-1.87,1.52-3.39,3.38-3.39h57.23c1.87,0,3.39,1.52,3.39,3.39v5.05Z"/>
  <path class="cls-3" d="M32.28,55.21c-.25,0-.5-.05-.74-.14-1.03-.41-1.53-1.57-1.12-2.6l8.75-22.01c.41-1.03,1.57-1.53,2.6-1.12,1.03.41,1.53,1.57,1.12,2.6l-8.75,22.01c-.31.78-1.06,1.26-1.86,1.26Z"/>
  <g>
    <g>
      <path class="cls-3" d="M59.38,42.71c-.1.24-.24.47-.44.66l-.12.12-8.42,8.42c-.39.4-.9.59-1.41.59s-1.03-.19-1.42-.59c-.78-.78-.78-2.04,0-2.82l7.12-7.12-7.12-7.12c-.78-.78-.78-2.05,0-2.83s2.05-.78,2.83,0l8.54,8.54c.58.58.73,1.43.44,2.15Z"/>
      <path class="cls-3" d="M58.94,40.55h0s-.06-.05-.06-.05c.02.01.04.03.06.05Z"/>
    </g>
    <path class="cls-3" d="M59.38,42.71c-.09.25-.24.48-.44.68-.04.04-.08.07-.12.1l.12-.12c.2-.19.34-.42.44-.66Z"/>
  </g>
  <g>
    <path class="cls-3" d="M14.49,43.61s-.08-.06-.12-.1c-.19-.19-.34-.42-.44-.67.1.24.25.46.44.65l.12.12Z"/>
    <g>
      <path class="cls-3" d="M25.74,49.2c.78.78.78,2.05,0,2.83-.39.39-.9.59-1.42.59s-1.02-.2-1.41-.59l-8.54-8.54c-.19-.19-.34-.41-.44-.65-.19-.48-.2-1.02,0-1.5.1-.24.25-.46.44-.66l.12-.12,8.42-8.42c.78-.78,2.05-.78,2.83,0,.78.78.78,2.04,0,2.82l-7.12,7.12,7.12,7.12Z"/>
      <path class="cls-3" d="M14.49,40.56l-.12.12c-.19.2-.34.42-.44.66.09-.25.24-.48.44-.68.04-.04.08-.07.12-.1Z"/>
    </g>
  </g>
</svg>