<?xml version="1.0" encoding="UTF-8"?>
<svg id="Capa_1" data-name="Capa 1" xmlns="http://www.w3.org/2000/svg" viewBox="0 0 72 72">
  <defs>
    <style>
      .cls-1 {
        fill: #010101;
      }
    </style>
  </defs>
  <path class="cls-1" d="M64.62,0H7.39C3.31,0,0,3.31,0,7.39v42.83c0,4.08,3.31,7.38,7.39,7.38h57.23c4.08,0,7.38-3.3,7.38-7.38V7.39c0-4.08-3.3-7.39-7.38-7.39ZM68,50.22c0,1.86-1.52,3.38-3.38,3.38H7.39c-1.87,0-3.39-1.52-3.39-3.38V7.39c0-1.87,1.52-3.39,3.39-3.39h57.23c1.86,0,3.38,1.52,3.38,3.39v42.83Z"/>
  <path class="cls-1" d="M60.71,8.74H11.3c-1.39,0-2.52,1.13-2.52,2.53v35.42c0,1.39,1.13,2.52,2.52,2.52h49.41c1.39,0,2.52-1.13,2.52-2.52V11.27c0-1.4-1.13-2.53-2.52-2.53ZM59.23,45.21H12.78V12.74h46.45v32.47Z"/>
  <g>
    <rect class="cls-1" x="4.36" y="63.22" width="10.9" height="4"/>
    <rect class="cls-1" x="23.26" y="63.22" width="44.39" height="4"/>
  </g>
  <path class="cls-1" d="M21.26,61.98v6.25c0,1.11-.9,2-2,2s-2-.89-2-2v-6.25c0-1.1.9-2,2-2s2,.9,2,2Z"/>
  <path class="cls-1" d="M47.48,26.33l-15.07-8.71c-.46-.26-.95-.38-1.43-.38-1.49,0-2.86,1.19-2.86,2.86v17.41c0,1.67,1.37,2.86,2.86,2.86.48,0,.97-.12,1.43-.38l15.07-8.71c1.91-1.1,1.91-3.85,0-4.95ZM32.12,35.54v-13.47l11.66,6.73-11.66,6.74Z"/>
</svg>